<svg xmlns="http://www.w3.org/2000/svg" style="display: none;">
  <symbol id="shape-top-left" viewBox="0 0 159 156">
    <path d="M-30 81.9324V155.361C-30 155.714 -29.7141 156 -29.3615 156H21.62C21.9724 156 22.2585 155.714 22.2585 155.361V96.299C22.2585 57.5087 60.5087 19.2585 99.299 19.2585H158.361C158.714 19.2585 159 18.9724 159 18.62V-32.3615C159 -32.7139 158.714 -33 158.361 -33H84.9324C21.4572 -33 -30 18.4572 -30 81.9324Z" fill="#FFF2D6"></path>
  </symbol>
  
  <symbol id="shape-bottom-right" viewBox="0 0 150 158">
    <path d="M189 74.0676V0.638514C189 0.286054 188.714 0 188.361 0H137.38C137.028 0 136.742 0.286054 136.742 0.638514V59.701C136.742 98.4913 98.4914 136.742 59.701 136.742H0.638514C0.286054 136.742 0 137.028 0 137.38V188.361C0 188.714 0.286054 189 0.638514 189H74.0676C137.543 189 189 137.543 189 74.0676Z" fill="#FFF2D6"></path>
  </symbol>
</svg>
