<svg width="286" height="72" viewBox="0 0 286 72" fill="none" xmlns="http://www.w3.org/2000/svg">
<path d="M35.4756 28.8C35.4756 15.2235 35.4756 8.43532 39.0493 4.21766C42.623 0 48.3748 0 59.8783 0H237.424C238.259 0 238.676 0 239.029 0.0241266C245.212 0.447062 250.146 6.26974 250.504 13.5668C250.524 13.983 250.524 14.4759 250.524 15.4615C250.524 16.078 250.524 16.3863 250.534 16.6733C250.7 21.5831 252.976 26.0542 256.571 28.5328C256.781 28.6777 257.012 28.8225 257.473 29.112L260.579 31.0619C263.002 32.5831 264.214 33.3437 264.651 34.3284C265.116 35.3752 265.116 36.6248 264.651 37.6716C264.214 38.6563 263.002 39.4169 260.579 40.9381L257.473 42.888C257.012 43.1775 256.781 43.3223 256.571 43.4672C252.976 45.9458 250.7 50.4169 250.534 55.3267C250.524 55.6137 250.524 55.9219 250.524 56.5385C250.524 57.5241 250.524 58.017 250.504 58.4332C250.146 65.7303 245.212 71.5529 239.029 71.9759C238.676 72 238.259 72 237.424 72H59.8783C48.3748 72 42.623 72 39.0493 67.7823C35.4756 63.5647 35.4756 56.7764 35.4756 43.2V28.8Z" fill="#DB9F6A"/>
<path d="M28.5272 42.888L25.4211 40.9381C22.9978 39.4169 21.7862 38.6563 21.3488 37.6716C20.8837 36.6248 20.8837 35.3752 21.3488 34.3284C21.7862 33.3437 22.9978 32.5831 25.4211 31.0619L28.5272 29.112C28.9881 28.8226 29.2191 28.6776 29.4291 28.5328C33.0241 26.0542 35.3 21.5831 35.4659 16.6733C35.4756 16.3863 35.4756 16.078 35.4756 15.4615C35.4756 14.4759 35.4756 13.983 35.4961 13.5668C35.8544 6.26974 40.7881 0.447062 46.971 0.0241266C47.3237 0 47.7413 0 48.5764 0H77.0365C88.54 0 94.2918 0 97.8655 4.21766C101.439 8.43532 101.439 15.2235 101.439 28.8V43.2C101.439 56.7765 101.439 63.5647 97.8655 67.7823C94.2918 72 88.54 72 77.0365 72H48.5764C47.7413 72 47.3237 72 46.971 71.9759C40.7881 71.5529 35.8544 65.7303 35.4961 58.4332C35.4756 58.017 35.4756 57.5241 35.4756 56.5385C35.4756 55.922 35.4756 55.6137 35.4659 55.3267C35.3 50.4169 33.0241 45.9458 29.4291 43.4672C29.219 43.3223 28.9884 43.1775 28.5272 42.888Z" fill="#DB9F6A"/>
<path d="M277.086 29.4142C277.867 28.6332 279.133 28.6332 279.914 29.4142L284.586 34.0858C285.367 34.8668 285.367 36.1332 284.586 36.9142L279.914 41.5858C279.133 42.3668 277.867 42.3668 277.086 41.5858L272.414 36.9142C271.633 36.1332 271.633 34.8668 272.414 34.0858L277.086 29.4142Z" fill="#DB9F6A"/>
<path d="M6.08579 29.4142C6.86683 28.6332 8.13317 28.6332 8.91421 29.4142L13.5858 34.0858C14.3668 34.8668 14.3668 36.1332 13.5858 36.9142L8.91421 41.5858C8.13317 42.3668 6.86684 42.3668 6.08579 41.5858L1.41421 36.9142C0.633165 36.1332 0.633165 34.8668 1.41421 34.0858L6.08579 29.4142Z" fill="#DB9F6A"/>
</svg>
